<svg xmlns="http://www.w3.org/2000/svg" width="88.964" height="114.382" viewBox="0 0 88.964 114.382">
  <g id="그룹_41" data-name="그룹 41" transform="translate(-1050 -380)">
    <path id="사각형_38" data-name="사각형 38" d="M0,0H70a0,0,0,0,1,0,0V54A10,10,0,0,1,60,64H10A10,10,0,0,1,0,54V0A0,0,0,0,1,0,0Z" transform="translate(1059 427)" fill="#4786e9"/>
    <g id="Page-1" transform="translate(1050 380)">
      <path id="trash-can" d="M78.019,19.946H69.546V11.493A8.482,8.482,0,0,0,61.084,3H39.88a8.468,8.468,0,0,0-8.462,8.493v8.452H6v4.236h8.473v80.462a12.7,12.7,0,0,0,12.71,12.738h46.6a12.7,12.7,0,0,0,12.71-12.738V24.182h8.473V19.946ZM18.709,24.182V104.7a8.448,8.448,0,0,0,8.438,8.45H73.817a8.47,8.47,0,0,0,8.438-8.45V24.182Zm12.709,8.473v72.019h4.236V32.655Zm16.946,0v72.019H52.6V32.655Zm16.946,0v72.019h4.236V32.655ZM39.9,7.236a4.228,4.228,0,0,0-4.249,4.232v8.477H65.309V11.468a4.211,4.211,0,0,0-4.249-4.232Z" transform="translate(-6 -3)" fill="#4786e9" fill-rule="evenodd"/>
    </g>
  </g>
</svg>
