<svg xmlns="http://www.w3.org/2000/svg" width="41" height="31.794" viewBox="0 0 41 31.794">
  <path id="compare" d="M41.953,24.686a1.312,1.312,0,0,0-.055-.268h0L34.076,5.976c-.008-.02-.025-.032-.034-.051a1.223,1.223,0,0,0-.128-.192,1.234,1.234,0,0,0-.111-.159c-.019-.019-.041-.033-.062-.051a1.262,1.262,0,0,0-.18-.118c-.033-.02-.062-.046-.1-.063s-.041-.035-.067-.046h0c-.023-.01-.047-.012-.07-.02a1.269,1.269,0,0,0-.2-.04,1.228,1.228,0,0,0-.286-.03c-.02,0-.038-.008-.058-.006l-8.2.784a3.4,3.4,0,0,0-6.363.609l-8.225.786a1.216,1.216,0,0,0-.168.051,1.28,1.28,0,0,0-.2.045c-.007,0-.014,0-.02,0s-.028.023-.045.031a1.245,1.245,0,0,0-.188.127,1.22,1.22,0,0,0-.16.116c-.018.018-.033.038-.05.057a1.258,1.258,0,0,0-.127.2,1.2,1.2,0,0,0-.1.139L1.105,26.214s0,0,0,.005a1.309,1.309,0,0,0-.045.214A1.3,1.3,0,0,0,1,26.719s0,0,0,0a9.1,9.1,0,1,0,18.209,0s0,0,0,0a25.464,25.464,0,0,0-.1-.5s0,0,0-.005L11.98,9.764l6.563-.627a3.39,3.39,0,0,0,6.178-.591l6.154-.588-6.983,16.46h0a87.3,87.3,0,0,0-.1.5h0a9.1,9.1,0,1,0,18.209,0h0A1.322,1.322,0,0,0,41.953,24.686Zm-3.17-1.05H27.008L32.9,9.757ZM10.1,11.88l5.872,13.561H4.232Zm0,21.39A6.552,6.552,0,0,1,3.692,28H16.517A6.552,6.552,0,0,1,10.1,33.271ZM21.5,8.31a.854.854,0,1,1,.854-.854A.855.855,0,0,1,21.5,8.31ZM32.9,31.464A6.551,6.551,0,0,1,26.483,26.2H39.308A6.551,6.551,0,0,1,32.9,31.464Z" transform="translate(-1 -4.039)" fill="#4786e9"/>
</svg>
