<svg xmlns="http://www.w3.org/2000/svg" width="35.14" height="26.381" viewBox="0 0 35.14 26.381">
  <g id="filter" transform="translate(-1 -3.991)">
    <path id="패스_37" data-name="패스 37" d="M2.1,9.495h9.781a4.384,4.384,0,0,0,8.5,0H35.042a1.1,1.1,0,0,0,0-2.2H20.379a4.384,4.384,0,0,0-8.5,0H2.1a1.1,1.1,0,0,0,0,2.2ZM16.129,6.187A2.209,2.209,0,1,1,13.92,8.4,2.211,2.211,0,0,1,16.129,6.187Z" transform="translate(0 0)" fill="#fff"/>
    <path id="패스_38" data-name="패스 38" d="M35.042,13.3H32.69a4.384,4.384,0,0,0-8.5,0H2.1a1.1,1.1,0,1,0,0,2.2H24.19a4.384,4.384,0,0,0,8.5,0h2.352a1.1,1.1,0,0,0,0-2.2Zm-6.6,3.307A2.209,2.209,0,1,1,30.65,14.4,2.211,2.211,0,0,1,28.44,16.606Z" transform="translate(0 2.785)" fill="#fff"/>
    <path id="패스_39" data-name="패스 39" d="M35.042,19.3H13.765a4.383,4.383,0,0,0-8.5,0H2.1a1.1,1.1,0,1,0,0,2.2H5.266a4.383,4.383,0,0,0,8.5,0H35.042a1.1,1.1,0,0,0,0-2.2ZM9.516,22.606A2.209,2.209,0,1,1,11.724,20.4,2.211,2.211,0,0,1,9.516,22.606Z" transform="translate(0 5.57)" fill="#fff"/>
  </g>
</svg>
