<svg xmlns="http://www.w3.org/2000/svg" width="37" height="37" viewBox="0 0 37 37">
  <path id="good" d="M30.063,9.25H27.7C27.463,4.941,25.93,0,16.188,0a2.311,2.311,0,0,0-2.312,2.312c0,4.194-.043,7.85-3.35,11.563H2.312A2.311,2.311,0,0,0,0,16.188v18.5A2.311,2.311,0,0,0,2.312,37h27.75A6.945,6.945,0,0,0,37,30.062V16.188A6.945,6.945,0,0,0,30.063,9.25ZM4.625,18.5H9.25V32.375H4.625Zm27.75,11.563a2.316,2.316,0,0,1-2.312,2.312H13.875V17.113c3.826-4.2,4.487-8.451,4.6-12.38,4.65.506,4.65,2.787,4.65,6.829a2.311,2.311,0,0,0,2.313,2.313h4.625a2.316,2.316,0,0,1,2.312,2.313Z" fill="#4786e9"/>
</svg>
