<?xml version="1.0" ?><svg id="Layer_1" style="enable-background:new 0 0 512 512;" version="1.1" viewBox="0 0 512 512" xml:space="preserve" xmlns="http://www.w3.org/2000/svg" xmlns:xlink="http://www.w3.org/1999/xlink"><style type="text/css">
	.st0{opacity:0.5;fill:#8E3D3C;}
	.st1{fill:none;stroke:#20201E;stroke-width:10;stroke-linejoin:round;stroke-miterlimit:10;}
</style><path class="st0" d="M447.8,190.2l-67.7-67.7c-12.1-12.1-31.8-12.1-43.9,0L174.7,283.9l-76.9,76.9l-18.2,18.2l0,0l-8.6,8.6  c-8.9,8.9-8.9,23.3,0,32.2l0,0c8.9,8.9,23.3,8.9,32.2,0l8.6-8.6l0,0l70.5-70.5l0,0l24.7-24.7l57.5,57.5l30,30l183.4-183.4  L447.8,190.2z"/><g><path class="st1" d="M191.9,301.1l-32.2-32.2L55.9,372.7c-8.9,8.9-8.9,23.3,0,32.2l0,0c8.9,8.9,23.3,8.9,32.2,0L191.9,301.1z"/><rect class="st1" height="99.6" transform="matrix(0.7071 0.7071 -0.7071 0.7071 277.8698 19.1218)" width="45.5" x="93.1" y="295.2"/><rect class="st1" height="259.4" transform="matrix(-0.7071 -0.7071 0.7071 -0.7071 408.4882 733.0071)" width="42.4" x="334.8" y="152.2"/><ellipse class="st1" cx="343.1" cy="129.5" rx="14.5" ry="14.5" transform="matrix(0.7071 -0.7071 0.7071 0.7071 8.9551 280.5245)"/><path class="st1" d="M365.1,107.5c-12.1-12.1-31.8-12.1-43.9,0L159.7,268.9l89.7,89.7l183.4-183.4L365.1,107.5z"/></g></svg>