<svg id="moon" xmlns="http://www.w3.org/2000/svg" width="40" height="40" viewBox="0 0 40 40">
  <path id="패스_21" data-name="패스 21" d="M0,0H40V40H0Z" fill="none"/>
  <path id="패스_22" data-name="패스 22" d="M24.007,17.333A13.351,13.351,0,0,0,10.673,4a11.276,11.276,0,0,0-1.683.117,19.991,19.991,0,0,1,5.017,13.217A19.991,19.991,0,0,1,8.99,30.55a11.276,11.276,0,0,0,1.683.117A13.351,13.351,0,0,0,24.007,17.333Z" transform="translate(5.993 2.667)" fill="#4786e9" opacity="0.3"/>
  <path id="패스_23" data-name="패스 23" d="M5,33.083A16.667,16.667,0,1,0,5,4.25a16.628,16.628,0,0,1,8.333,14.417A16.628,16.628,0,0,1,5,33.083ZM16.667,18.667A19.991,19.991,0,0,0,11.65,5.45a11.276,11.276,0,0,1,1.683-.117,13.333,13.333,0,1,1,0,26.667,11.276,11.276,0,0,1-1.683-.117A19.991,19.991,0,0,0,16.667,18.667Z" transform="translate(3.333 1.333)" fill="#4786e9"/>
</svg>
