<svg id="moon" xmlns="http://www.w3.org/2000/svg" width="30" height="30" viewBox="0 0 30 30">
  <path id="패스_21" data-name="패스 21" d="M0,0H30V30H0Z" fill="none"/>
  <path id="패스_22" data-name="패스 22" d="M20.253,14a10.013,10.013,0,0,0-10-10,8.457,8.457,0,0,0-1.263.088A14.993,14.993,0,0,1,12.753,14,14.993,14.993,0,0,1,8.99,23.913,8.457,8.457,0,0,0,10.253,24,10.013,10.013,0,0,0,20.253,14Z" transform="translate(2.247 1)" fill="#fff" opacity="0.3"/>
  <path id="패스_23" data-name="패스 23" d="M5,25.313A12.5,12.5,0,1,0,5,3.688,12.471,12.471,0,0,1,11.25,14.5,12.471,12.471,0,0,1,5,25.313ZM13.75,14.5A14.993,14.993,0,0,0,9.987,4.588,8.457,8.457,0,0,1,11.25,4.5a10,10,0,0,1,0,20,8.457,8.457,0,0,1-1.263-.087A14.993,14.993,0,0,0,13.75,14.5Z" transform="translate(1.25 0.5)" fill="#fff"/>
</svg>
