<svg xmlns="http://www.w3.org/2000/svg" width="47.5" height="38" viewBox="0 0 47.5 38">
  <g id="people3" transform="translate(0 -3)">
    <g id="그룹_11" data-name="그룹 11" transform="translate(11.083 9.333)">
      <path id="패스_15" data-name="패스 15" d="M22.833,28V25.333s2.483-2.34,2.663-3.936a3.244,3.244,0,0,0,1.3-2.5c0-1.111-.5-1.279-.5-1.279a8.322,8.322,0,0,0,.891-3.308c0-3.238-1.624-5.729-4.354-5.729A4.2,4.2,0,0,0,19.667,7c-4.262,0-7.719,2.568-7.719,7.163a6.541,6.541,0,0,0,1.089,3.456s-.5.242-.5,1.279a2.466,2.466,0,0,0,1.3,2.5c.181,1.6,2.663,3.936,2.663,3.936V28C15.167,32,7,29.365,7,38.667H32.333C32.333,29.333,24.166,32,22.833,28Z" transform="translate(-7 -7)" fill="#0358de"/>
    </g>
    <g id="그룹_12" data-name="그룹 12" transform="translate(30.083 3)">
      <path id="패스_16" data-name="패스 16" d="M23.354,16.645a10,10,0,0,1-.567,3.149,5.811,5.811,0,0,1,.171,1.438c0,3.911-3.958,7.812-3.958,7.812.86.375,3.61,1.773,4.734,2.456H36.417c0-8.312-6.75-5.937-7.917-9.5V19.625a6.091,6.091,0,0,0,1.935-3.506,2.266,2.266,0,0,0,1.232-1.941c0-.9-.285-1.278-.534-1.423a7.157,7.157,0,0,0,.534-2.63c0-2.883-.779-5.542-3.167-5.542,0,0-.686-1.583-3.167-1.583-3.52,0-5.681,2.421-6.2,5.594C21.689,9.965,23.354,12.923,23.354,16.645Z" transform="translate(-19 -3)" fill="#a9c3ed"/>
    </g>
    <g id="그룹_13" data-name="그룹 13" transform="translate(0 3)">
      <path id="패스_17" data-name="패스 17" d="M17.417,28.954a13.672,13.672,0,0,1-2.552-3.707,4.06,4.06,0,0,1-2.2-2.058v-1.6a11.1,11.1,0,0,0,1.5-.139,11.665,11.665,0,0,1-1.3-4.957A9.9,9.9,0,0,1,16.912,8.23C16.15,5.315,14.459,3,10.452,3A3.688,3.688,0,0,0,7.917,4.583c-8.289,0-3.714,13.229-6.15,15.179,0,0,1.491,1.848,6.15,1.848v1.58C6.629,26.544,0,25.3,0,31.5H12.7C13.818,30.826,17.417,28.954,17.417,28.954Z" transform="translate(0 -3)" fill="#a9c3ed"/>
    </g>
  </g>
</svg>
