<?xml version="1.0" ?><!DOCTYPE svg  PUBLIC '-//W3C//DTD SVG 1.1//EN'  'http://www.w3.org/Graphics/SVG/1.1/DTD/svg11.dtd'><svg height="512px" style="enable-background:new 0 0 512 512;" version="1.1" viewBox="0 0 512 512" width="512px" xml:space="preserve" xmlns="http://www.w3.org/2000/svg" xmlns:xlink="http://www.w3.org/1999/xlink"><g id="_x31_4_x2C__Microsoft_x2C__People"><g><circle cx="251" cy="266" r="175" style="fill:#9BC9FF;"/><circle cx="431" cy="86" r="35" style="fill:#FFFFFF;"/><path d="M81,411c13.81,0,25,11.19,25,25s-11.19,25-25,25s-25-11.19-25-25S67.19,411,81,411z" style="fill:#FFFFFF;"/><path d="M381,295.48v20.659h-95.88v-3.02c0-26-10.65-49.51-27.82-66.42c3.82-4.09,8.11-7.73,12.78-10.83    c7.79,13.73,22.529,23,39.449,23c16.91,0,31.65-9.27,39.44-23C368.27,248.67,381,270.59,381,295.48z" style="fill:#FFFFFF;"/><path d="M309.529,176.91c17.33,0,31.371,14.05,31.371,31.38s-14.041,31.38-31.371,31.38    s-31.379-14.05-31.379-31.38S292.199,176.91,309.529,176.91z" style="fill:#FFFFFF;"/><path d="M268.01,312.43v22.66H125.07v-22.66c0-24.89,12.73-46.81,32.03-59.61c7.79,13.73,22.53,23,39.44,23    c16.91,0,31.65-9.271,39.44-23C255.28,265.62,268.01,287.54,268.01,312.43z" style="fill:#FFFFFF;"/><circle cx="196.54" cy="225.23" r="31.38" style="fill:#FFFFFF;"/><circle cx="453.5" cy="163.5" r="7.5" style="fill:#1E81CE;"/><circle cx="443.5" cy="378.5" r="7.5" style="fill:#1E81CE;"/><circle cx="348.5" cy="458.5" r="7.5" style="fill:#1E81CE;"/><circle cx="323.5" cy="58.5" r="7.5" style="fill:#1E81CE;"/><circle cx="113.5" cy="63.5" r="7.5" style="fill:#1E81CE;"/><circle cx="58.5" cy="348.5" r="7.5" style="fill:#1E81CE;"/><circle cx="48.5" cy="188.5" r="7.5" style="fill:#1E81CE;"/><path d="M251,446c-99.252,0-180-80.748-180-180c0-99.252,80.748-180,180-180c99.252,0,180,80.748,180,180    C431,365.252,350.252,446,251,446z M251,96c-93.738,0-170,76.262-170,170s76.262,170,170,170s170-76.262,170-170    S344.738,96,251,96z" style="fill:#1E81CE;"/><path d="M196.54,261.609c-20.06,0-36.38-16.319-36.38-36.379s16.32-36.38,36.38-36.38    s36.38,16.32,36.38,36.38S216.6,261.609,196.54,261.609z M196.54,198.85c-14.546,0-26.38,11.834-26.38,26.38    s11.834,26.38,26.38,26.38c14.546,0,26.38-11.834,26.38-26.38S211.086,198.85,196.54,198.85z" style="fill:#1E81CE;"/><path d="M268.01,340.09H125.07c-2.761,0-5-2.238-5-5v-22.66c0-25.704,12.81-49.547,34.267-63.777    c1.156-0.766,2.578-1.018,3.926-0.696c1.349,0.322,2.502,1.19,3.187,2.396c7.163,12.625,20.609,20.468,35.091,20.468    c14.482,0,27.928-7.843,35.091-20.468c0.684-1.206,1.838-2.074,3.187-2.396c1.351-0.322,2.771-0.069,3.926,0.696    c21.457,14.231,34.266,38.073,34.266,63.777v22.66C273.01,337.852,270.771,340.09,268.01,340.09z M130.07,330.09h132.94v-17.66    c0-20.647-9.51-39.913-25.675-52.482c-9.402,12.995-24.577,20.873-40.794,20.873c-16.218,0-31.393-7.878-40.794-20.873    c-16.166,12.569-25.676,31.835-25.676,52.482V330.09z" style="fill:#1E81CE;"/><path d="M309.529,244.67c-20.06,0-36.379-16.32-36.379-36.38s16.319-36.38,36.379-36.38    c20.055,0,36.371,16.32,36.371,36.38S329.584,244.67,309.529,244.67z M309.529,181.91c-14.545,0-26.379,11.834-26.379,26.38    s11.834,26.38,26.379,26.38c14.541,0,26.371-11.834,26.371-26.38S324.07,181.91,309.529,181.91z" style="fill:#1E81CE;"/><path d="M381,321.14h-95.88c-2.761,0-5-2.238-5-5v-3.02c0-23.813-9.351-46.136-26.329-62.857    c-1.931-1.901-1.996-4.995-0.146-6.976c4.093-4.382,8.692-8.279,13.669-11.583c1.154-0.767,2.576-1.021,3.927-0.697    c1.349,0.322,2.503,1.19,3.188,2.396c7.163,12.625,20.612,20.467,35.101,20.467c14.482,0,27.929-7.843,35.092-20.467    c0.684-1.206,1.838-2.074,3.187-2.396c1.348-0.322,2.771-0.069,3.926,0.696C373.189,245.933,386,269.775,386,295.48v20.659    C386,318.901,383.762,321.14,381,321.14z M290.101,311.14H376V295.48c0-20.647-9.511-39.914-25.676-52.483    c-9.401,12.995-24.576,20.873-40.795,20.873c-16.221,0-31.398-7.875-40.801-20.869c-1.524,1.189-2.999,2.445-4.418,3.763    C280.547,264.438,289.628,287.053,290.101,311.14z" style="fill:#1E81CE;"/><path d="M81,466c-16.542,0-30-13.458-30-30s13.458-30,30-30s30,13.458,30,30S97.542,466,81,466z M81,416    c-11.028,0-20,8.972-20,20s8.972,20,20,20s20-8.972,20-20S92.028,416,81,416z" style="fill:#1E81CE;"/><path d="M431,126c-22.057,0-40-17.944-40-40s17.943-40,40-40s40,17.944,40,40S453.057,126,431,126z M431,56    c-16.542,0-30,13.458-30,30s13.458,30,30,30s30-13.458,30-30S447.542,56,431,56z" style="fill:#1E81CE;"/></g></g><g id="Layer_1"/></svg>