<svg xmlns="http://www.w3.org/2000/svg" width="26.259" height="36" viewBox="0 0 26.259 36">
  <g id="Layer_2" transform="translate(-100.99 -43.5)">
    <g id="그룹_33" data-name="그룹 33" transform="translate(100.99 43.5)">
      <g id="그룹_31" data-name="그룹 31" transform="translate(17.442 0)">
        <path id="패스_30" data-name="패스 30" d="M315.717,43.5V78.433A1.067,1.067,0,0,1,314.65,79.5h-2.618a1.067,1.067,0,0,1-1.067-1.067V66.241h-2.087a1.977,1.977,0,0,1-1.977-1.977V52.149a8.65,8.65,0,0,1,8.649-8.649Z" transform="translate(-306.9 -43.5)" fill="#4786e9"/>
      </g>
      <g id="그룹_32" data-name="그룹 32" transform="translate(0 0)">
        <path id="패스_31" data-name="패스 31" d="M112.014,43.5a1.245,1.245,0,0,0-1.163,1.255v7.524a1.243,1.243,0,0,1-1.243,1.243h0a1.243,1.243,0,0,1-1.243-1.243V44.76A1.245,1.245,0,0,0,107.2,43.5a1.222,1.222,0,0,0-1.282,1.221v7.559a1.243,1.243,0,0,1-1.243,1.243h0a1.243,1.243,0,0,1-1.243-1.243V44.76a1.245,1.245,0,0,0-1.163-1.255,1.222,1.222,0,0,0-1.282,1.221v9.7h0v2.659a5.144,5.144,0,0,0,3.6,4.743l-1.062,14.221a3.416,3.416,0,0,0,3.613,3.458h0a3.416,3.416,0,0,0,3.613-3.458l-1.062-14.221a5.145,5.145,0,0,0,3.6-4.743V44.726A1.221,1.221,0,0,0,112.014,43.5Z" transform="translate(-100.99 -43.504)" fill="#4786e9"/>
      </g>
    </g>
  </g>
</svg>
