<svg id="sun" xmlns="http://www.w3.org/2000/svg" width="38" height="38" viewBox="0 0 38 38">
  <path id="패스_27" data-name="패스 27" d="M0,0H38V38H0Z" fill="none"/>
  <path id="패스_28" data-name="패스 28" d="M14.333,7.5a6.333,6.333,0,1,0,6.333,6.333A6.332,6.332,0,0,0,14.333,7.5Z" transform="translate(4.667 4.375)" fill="#4786e9" opacity="0.3"/>
  <path id="패스_29" data-name="패스 29" d="M7.872,9.575,10.12,7.342,7.27,4.508,5.037,6.741ZM1,16.3H5.75v3.167H1ZM16.833.55H20V5.221H16.833ZM28.962,9.583,26.729,7.355l2.834-2.834,2.226,2.233Zm-2.248,18.85,2.834,2.85L31.78,29.05l-2.85-2.834ZM31.083,16.3h4.75v3.167h-4.75ZM18.417,8.387a9.5,9.5,0,1,0,9.5,9.5A9.508,9.508,0,0,0,18.417,8.387Zm0,15.833a6.333,6.333,0,1,1,6.333-6.333A6.332,6.332,0,0,1,18.417,24.221Zm-1.583,6.333H20v4.671H16.833Zm-11.8-1.52L7.27,31.267l2.834-2.85L7.872,26.184Z" transform="translate(0.583 0.321)" fill="#4786e9"/>
</svg>
