<svg xmlns="http://www.w3.org/2000/svg" width="39" height="39" viewBox="0 0 39 39">
  <path id="bad" d="M31.688,0H2.437A2.436,2.436,0,0,0,0,2.438v19.5a2.436,2.436,0,0,0,2.437,2.438h8.656c3.485,3.913,3.531,7.767,3.531,12.188A2.436,2.436,0,0,0,17.063,39c10.269,0,11.885-5.208,12.14-9.75h2.485A7.321,7.321,0,0,0,39,21.937V7.312A7.321,7.321,0,0,0,31.688,0ZM4.875,4.875H9.75V19.5H4.875Zm29.25,17.063a2.441,2.441,0,0,1-2.437,2.437H26.813a2.436,2.436,0,0,0-2.437,2.438c0,4.261,0,6.665-4.9,7.2-.119-4.142-.816-8.626-4.849-13.049V4.875H31.688a2.441,2.441,0,0,1,2.438,2.438Z" fill="#4786e9"/>
</svg>
