<svg xmlns="http://www.w3.org/2000/svg" width="38.251" height="38.255" viewBox="0 0 38.251 38.255">
  <g id="spoon" transform="translate(-2.003 -1.989)">
    <path id="패스_52" data-name="패스 52" d="M21.255,17.812a2.731,2.731,0,0,1-1.5-1.5,14.9,14.9,0,0,1-.519-1.53L3.2,28.574A4.1,4.1,0,1,0,9.06,34.3L22.785,18.317A15.022,15.022,0,0,1,21.255,17.812Z" transform="translate(0 4.678)" fill="#4786e9"/>
    <path id="패스_53" data-name="패스 53" d="M33.253,4.162A7.252,7.252,0,0,0,27.613,2a13.384,13.384,0,0,0-11.4,18.437,1.366,1.366,0,0,0,.737.737A13.384,13.384,0,0,0,35.411,9.8a7.252,7.252,0,0,0-2.158-5.64Z" transform="translate(4.828 0)" fill="#4786e9"/>
  </g>
</svg>
