<svg id="sun" xmlns="http://www.w3.org/2000/svg" width="28" height="28" viewBox="0 0 28 28">
  <path id="패스_27" data-name="패스 27" d="M0,0H28V28H0Z" fill="none"/>
  <path id="패스_28" data-name="패스 28" d="M12.667,7.5a4.667,4.667,0,1,0,4.667,4.667A4.665,4.665,0,0,0,12.667,7.5Z" transform="translate(1.333 1.25)" fill="#4786e9" opacity="0.3"/>
  <path id="패스_29" data-name="패스 29" d="M6.063,7.2,7.72,5.555,5.62,3.467,3.975,5.112ZM1,12.158H4.5v2.333H1ZM12.667.55H15V3.992H12.667ZM21.6,7.206,19.958,5.564l2.088-2.088,1.64,1.645ZM19.947,21.095l2.088,2.1L23.68,21.55l-2.1-2.088Zm3.22-8.937h3.5v2.333h-3.5ZM13.833,6.325a7,7,0,1,0,7,7A7.006,7.006,0,0,0,13.833,6.325Zm0,11.667A4.667,4.667,0,1,1,18.5,13.325,4.665,4.665,0,0,1,13.833,17.992Zm-1.167,4.667H15V26.1H12.667Zm-8.692-1.12L5.62,23.183l2.088-2.1L6.063,19.438Z" transform="translate(0.167 0.092)" fill="#4786e9"/>
</svg>
