<svg xmlns="http://www.w3.org/2000/svg" viewBox="0 0 154.27 56.56"><defs><style>.cls-1{fill:#de2336;}.cls-2{fill:#1c1c1b;}.cls-3{fill:#e98500;}.cls-4{fill:#007bc1;}</style></defs><title>CJ 로고</title><g id="레이어_2" data-name="레이어 2"><g id="레이어_3" data-name="레이어 3"><path class="cls-1" d="M45.4,43.34c-1-7.27-4.54-13.19-8.2-13.22s-9,5.93-12.1,13.23.4,13.21,8.23,13.21,13-6,12.07-13.22"/><path class="cls-2" d="M8.08,24h0A8.06,8.06,0,0,0,0,32.37a8,8,0,0,0,8.08,8.25,8.53,8.53,0,0,0,6.68-3.19,2.43,2.43,0,0,0-2.13-1.12c-1.42,0-1.74,1.42-4.55,1.42a5.18,5.18,0,0,1-5-5.36,5.28,5.28,0,0,1,5-5.47c2.51,0,3.11,1.49,4.4,1.49a3.06,3.06,0,0,0,2.22-1.2A8.41,8.41,0,0,0,8.08,24"/><path class="cls-2" d="M24.56,24.48H18a1.71,1.71,0,0,0-1.89,1.73v1H19s.11,9.89,0,11h0a4.2,4.2,0,0,1-2.28,3.65,2.31,2.31,0,0,0-1.63,2.49h0c0,.08.05.12.09.13h0S16.76,44,17,43.94h0a7.48,7.48,0,0,0,4.53-3.35A8.85,8.85,0,0,0,22.43,36V27.18h.14a1.8,1.8,0,0,0,2-1.73v-1"/><path class="cls-3" d="M58.45,19.28c-6.85-2.69-13.78-2.41-15.54.78s.83,10.72,5.7,17,11.76,6.05,15.56-.79,1.11-14.28-5.72-17"/><path class="cls-4" d="M23.6,21.46c6.08,4.16,12.89,5.41,15.31,2.72S40.5,13.53,37.14,6.34,27-2.18,21.81,3.65,17.54,17.32,23.6,21.46"/><path class="cls-2" d="M126.21,32.6a4.28,4.28,0,0,0,4.51-4,4.54,4.54,0,0,0-9,0A4.28,4.28,0,0,0,126.21,32.6Zm0-6.53a2.31,2.31,0,0,1,2,2.52,2.08,2.08,0,1,1-4,0A2.32,2.32,0,0,1,126.21,26.07Z"/><path class="cls-2" d="M71.16,37a.77.77,0,0,0-.82.83v.78H85.6a.78.78,0,0,0,.83-.84V37Z"/><path class="cls-2" d="M85.17,33.09v-.77H82.88V26.86h1.17a.78.78,0,0,0,.83-.83v-.78H72.71a.79.79,0,0,0-.83.84v.77h2v5.46H72.42a.78.78,0,0,0-.83.84v.77H84.34A.77.77,0,0,0,85.17,33.09Zm-4.77-.77h-4V26.86h4Z"/><path class="cls-2" d="M118.51,24.4c-.92,0-1.43.58-1.43,1.61V40.58h1c.93,0,1.44-.57,1.44-1.61V24.4Z"/><path class="cls-2" d="M111.28,27.44V24.88h-1c-.93,0-1.44.58-1.44,1.61v1c0,2.22-.14,4.93-4.54,8l.67.71a1.15,1.15,0,0,0,1.53.16,14.62,14.62,0,0,0,3.58-4,14.6,14.6,0,0,0,3.57,4,1.15,1.15,0,0,0,1.53-.16l.67-.71C111.42,32.37,111.28,29.66,111.28,27.44Z"/><path class="cls-2" d="M153.21,24.4c-.92,0-1.43.57-1.43,1.61V40.58h1.05c.93,0,1.44-.57,1.44-1.61V24.4Z"/><path class="cls-2" d="M144.87,25a5.61,5.61,0,1,0,5.54,5.61A5.57,5.57,0,0,0,144.87,25Zm0,9.61c-1.69,0-3.06-1.79-3.06-4s1.37-4,3.06-4,3,1.79,3,4S146.55,34.65,144.87,34.65Z"/><path class="cls-2" d="M100.57,40.58h1c.92,0,1.43-.57,1.43-1.6V24.41h-1c-.92,0-1.43.57-1.43,1.6Z"/><path class="cls-2" d="M135,40.58h1c.93,0,1.44-.57,1.44-1.61V24.4h-1c-.93,0-1.43.58-1.43,1.61Z"/><path class="cls-2" d="M133,24.4c-.92,0-1.43.58-1.43,1.61v6.75a26.8,26.8,0,0,1-4.84.47H122.4a.79.79,0,0,0-.83.84v.77h3.35v5.35h1c.93,0,1.44-.57,1.44-1.6V34.78a24.43,24.43,0,0,0,4.13-.5v2.14h-1.76a.78.78,0,0,0-.83.83V38h2.59v2.56h.95c.93,0,1.43-.57,1.43-1.61V24.4Z"/><path class="cls-2" d="M98.52,24.41c-.92,0-1.43.57-1.43,1.6V31.9H95.33a.78.78,0,0,0-.83.83v.77h2.59v1.26a30.39,30.39,0,0,1-3.28.24h-3V31.06h3.48c.92,0,1.43-.57,1.43-1.6V25H89.1a.77.77,0,0,0-.82.83v.77h4.91v2.84H89.7c-.93,0-1.44.57-1.43,1.6v5.55h3.65a31.29,31.29,0,0,0,5.17-.37v4.34h1c.92,0,1.43-.57,1.43-1.6V24.41Z"/></g></g></svg>